<svg xmlns="http://www.w3.org/2000/svg" xmlns:xlink="http://www.w3.org/1999/xlink" width="10" height="10"><path style="fill:url(#q)" d="M125 10c-2.76 0-5-2.24-5-5s2.24-5 5-5 5 2.24 5 5-2.24 5-5 5z" transform="translate(-120)"/><path style="fill:#d00" d="M129.5 5c0 2.49-2.01 4.5-4.5 4.5s-4.5-2.01-4.5-4.5S122.51.5 125 .5s4.5 2.01 4.5 4.5z" transform="translate(-120)"/><path style="fill:url(#r)" d="M125.03.53c1.97 0 3.56 1.02 3.56 2.28 0 1.26-1.59 2.28-3.56 2.28s-3.56-1.02-3.56-2.28c0-1.26 1.59-2.28 3.56-2.28z" transform="translate(-120)"/><path style="fill:url(#s)" d="M125.03 9.47c1.66 0 3-.71 3-1.59 0-.88-1.34-1.59-3-1.59s-3 .71-3 1.59c0 .88 1.34 1.59 3 1.59z" transform="translate(-120)"/><defs><linearGradient id="t"><stop offset="0" stop-color="red" stop-opacity="0"/><stop offset="1" stop-color="#f0cb68" stop-opacity=".71"/></linearGradient><linearGradient id="u"><stop offset="0" stop-color="#e60000" stop-opacity=".65"/><stop offset="1" stop-color="#fff" stop-opacity=".91"/></linearGradient><linearGradient id="v"><stop offset="0" stop-color="#a10000"/><stop offset="1" stop-color="#c60000"/></linearGradient><linearGradient id="s" x1="227.88" x2="235.12" y1="103.16" y2="103.16" gradientTransform="matrix(0 .43966 .78049 0 44.488 -93.88)" gradientUnits="userSpaceOnUse" xlink:href="#t"/><linearGradient id="r" x1="227.88" x2="235.12" y1="103.16" y2="103.16" gradientTransform="matrix(0 -.62931 .92683 0 29.47 148.53)" gradientUnits="userSpaceOnUse" xlink:href="#u"/><linearGradient id="q" x1="227.88" x2="235.12" y1="103.16" y2="103.16" gradientTransform="matrix(0 1.3793 -1.3008 0 259.08 -314.35)" gradientUnits="userSpaceOnUse" xlink:href="#v"/></defs></svg>